<?xml version="1.0" encoding="UTF-8" standalone="no"?>
<svg
   xmlns:dc="http://purl.org/dc/elements/1.1/"
   xmlns:cc="http://creativecommons.org/ns#"
   xmlns:rdf="http://www.w3.org/1999/02/22-rdf-syntax-ns#"
   xmlns:svg="http://www.w3.org/2000/svg"
   xmlns="http://www.w3.org/2000/svg"
   xmlns:sodipodi="http://sodipodi.sourceforge.net/DTD/sodipodi-0.dtd"
   xmlns:inkscape="http://www.inkscape.org/namespaces/inkscape"
   inkscape:version="1.0 (4035a4f, 2020-05-01)"
   sodipodi:docname="logo-gh.svg"
   id="svg1500"
   version="1.1"
   viewBox="0 0 256 56"
   fill="none">
  <metadata
     id="metadata1504">
    <rdf:RDF>
      <cc:Work
         rdf:about="">
        <dc:format>image/svg+xml</dc:format>
        <dc:type
           rdf:resource="http://purl.org/dc/dcmitype/StillImage" />
      </cc:Work>
    </rdf:RDF>
  </metadata>
  <sodipodi:namedview
     inkscape:current-layer="svg1500"
     inkscape:window-maximized="0"
     inkscape:window-y="23"
     inkscape:window-x="0"
     inkscape:cy="40.567568"
     inkscape:cx="56.943459"
     inkscape:zoom="1.5685332"
     showgrid="false"
     id="namedview1502"
     inkscape:window-height="594"
     inkscape:window-width="1217"
     inkscape:pageshadow="2"
     inkscape:pageopacity="0"
     guidetolerance="10"
     gridtolerance="10"
     objecttolerance="10"
     borderopacity="1"
     bordercolor="#666666"
     pagecolor="#ffffff" />
  <path
     style="fill:url(#paint0_linear)"
     id="path1481"
     fill="url(#paint0_linear)"
     d="M 105.08,12.737226 126.36,1.0672258 a 4,4 0 0 1 3.91,0.03 L 151,12.947226 a 4,4 0 0 1 2,3.47 v 23.54 a 4,4 0 0 1 -2.06,3.5 l -20.7,11.47 a 4,4 0 0 1 -3.84,0.02 l -21.3,-11.5 a 4,4 0 0 1 -2.1,-3.52 v -23.68 a 4,4 0 0 1 2.08,-3.5 z" />
  <ellipse
     cy="125.21551"
     cx="-39.30896"
     id="ellipse1483"
     stroke-width="1.5"
     stroke="#ffffff"
     transform="matrix(-0.49197092,0.87061163,0.86779294,0.49692596,0,0)"
     ry="18.780153"
     rx="7.6499858" />
  <ellipse
     cy="97.664688"
     cx="-87.906151"
     id="ellipse1485"
     stroke-width="1.5"
     stroke="#ffffff"
     transform="matrix(-0.49197092,-0.87061163,0.86779294,-0.49692596,0,0)"
     ry="18.780153"
     rx="7.6499858" />
  <ellipse
     id="ellipse1487"
     stroke-width="1.5"
     stroke="#ffffff"
     transform="scale(-1)"
     ry="18.870001"
     rx="7.6100001"
     cy="-28"
     cx="-128" />
  <ellipse
     id="ellipse1489"
     fill="#ffffff"
     transform="rotate(-90)"
     ry="3.04"
     rx="3.0599999"
     cy="128"
     cx="-28" />
  <defs
     id="defs1498">
    <linearGradient
       gradientTransform="translate(103,-0.01277424)"
       gradientUnits="userSpaceOnUse"
       y2="19.5"
       x2="26"
       y1="76"
       x1="24"
       id="paint0_linear">
      <stop
         id="stop1493"
         stop-color="#F231A5" />
      <stop
         id="stop1495"
         stop-color="#FF66C2"
         offset="1" />
    </linearGradient>
  </defs>
</svg>
